<svg width="300" height="300" viewBox="0 0 300 300" fill="none" xmlns="http://www.w3.org/2000/svg">
<rect width="300" height="300" rx="20" fill="url(#paint0_linear_1_4)"/>
<g filter="url(#filter0_d_1_4)">
<rect x="90" y="100" width="120" height="100" rx="10" fill="#E2E8F0"/>
<rect x="105" y="120" width="90" height="10" rx="5" fill="#A0AEC0"/>
<rect x="105" y="140" width="60" height="10" rx="5" fill="#A0AEC0"/>
<rect x="120" y="165" width="60" height="20" rx="10" fill="#4A5568"/>
</g>
<circle cx="150" cy="80" r="30" fill="#CBD5E1" filter="url(#filter1_d_1_4)"/>
<path d="M150 65C158.284 65 165 71.7157 165 80C165 88.2843 158.284 95 150 95C141.716 95 135 88.2843 135 80C135 71.7157 141.716 65 150 65Z" fill="#E2E8F0"/>
<path d="M150 75C152.761 75 155 77.2386 155 80C155 82.7614 152.761 85 150 85C147.239 85 145 82.7614 145 80C145 77.2386 147.239 75 150 75Z" fill="#4A5568"/>
<defs>
<filter id="filter0_d_1_4" x="80" y="94" width="140" height="120" filterUnits="userSpaceOnUse" color-interpolation-filters="sRGB">
<feFlood flood-opacity="0" result="BackgroundImageFix"/>
<feColorMatrix in="SourceAlpha" type="matrix" values="0 0 0 0 0 0 0 0 0 0 0 0 0 0 0 0 0 0 127 0" result="hardAlpha"/>
<feOffset dy="4"/>
<feGaussianBlur stdDeviation="5"/>
<feComposite in2="hardAlpha" operator="out"/>
<feColorMatrix type="matrix" values="0 0 0 0 0.0627451 0 0 0 0 0.0941176 0 0 0 0 0.156863 0 0 0 0.05 0"/>
<feBlend mode="normal" in2="BackgroundImageFix" result="effect1_dropShadow_1_4"/>
<feBlend mode="normal" in="SourceGraphic" in2="effect1_dropShadow_1_4" result="shape"/>
</filter>
<filter id="filter1_d_1_4" x="110" y="44" width="80" height="80" filterUnits="userSpaceOnUse" color-interpolation-filters="sRGB">
<feFlood flood-opacity="0" result="BackgroundImageFix"/>
<feColorMatrix in="SourceAlpha" type="matrix" values="0 0 0 0 0 0 0 0 0 0 0 0 0 0 0 0 0 0 127 0" result="hardAlpha"/>
<feOffset dy="4"/>
<feGaussianBlur stdDeviation="5"/>
<feComposite in2="hardAlpha" operator="out"/>
<feColorMatrix type="matrix" values="0 0 0 0 0.0627451 0 0 0 0 0.0941176 0 0 0 0 0.156863 0 0 0 0.05 0"/>
<feBlend mode="normal" in2="BackgroundImageFix" result="effect1_dropShadow_1_4"/>
<feBlend mode="normal" in="SourceGraphic" in2="effect1_dropShadow_1_4" result="shape"/>
</filter>
<linearGradient id="paint0_linear_1_4" x1="150" y1="0" x2="150" y2="300" gradientUnits="userSpaceOnUse">
<stop stop-color="#ED64A6"/>
<stop offset="1" stop-color="#D53F8C"/>
</linearGradient>
</defs>
</svg>
